<?xml version="1.0" encoding="UTF-8"?>
<!-- Created with Inkscape (http://www.inkscape.org/) -->
<svg width="1200" height="614" version="1.1" xmlns="http://www.w3.org/2000/svg">
 <title>ISS from Expedition 58 patch</title>
 <g id="ISS" transform="matrix(30.641 0 0 -30.641 -14445 10141)">
  <g transform="translate(472.86 322.37)">
   <path d="m0 0 0.091-5.813-0.058-4.149s0.196 0.077 0.234-0.056l0.071 0.072 2.846 0.272-0.938 9.807z" fill="#f3c27f"/>
  </g>
  <g transform="translate(475.38 322.49)">
   <path d="m0 0 2.221 0.104 1.621-9.475-2.883-0.352z" fill="#f3c27f"/>
  </g>
  <g transform="translate(478.41 322.62)">
   <path d="m0 0 2.255 0.096 2.365-9.176-2.361-0.318s-0.197 0.065-0.297-0.053z" fill="#f3c27f"/>
  </g>
  <g transform="translate(481.01 322.72)">
   <path d="m0 0 1.937 0.102 3.052-8.898-2.595-0.334z" fill="#f3c27f"/>
  </g>
  <g transform="translate(498.76 322.58)">
   <path d="m0 0 5.047-6.419 0.25 0.01 0.997 0.239-4.97 6.224z" fill="#f3c27f"/>
  </g>
  <g transform="translate(500.24 322.69)">
   <path d="m0 0 1.157 0.023 5.026-5.989-1.122-0.244z" fill="#f3c27f"/>
  </g>
  <g transform="translate(501.71 322.74)">
   <path d="m0 0 1.278 0.083 5.015-5.81-1.209-0.241z" fill="#f3c27f"/>
  </g>
  <g transform="translate(503.21 322.8)">
   <path d="m0 0 1.161 0.04 5.017-5.509-1.221-0.291z" fill="#f3c27f"/>
  </g>
  <g transform="translate(474.1 322.85)">
   <path d="m0 0 0.368 0.425 8.022 0.216-0.085-0.386z" fill="#00013a"/>
  </g>
  <g transform="translate(482.84 323.11)">
   <path d="m0 0 9.029 0.169-0.149-0.469-8.705-0.3z" fill="#00013a"/>
  </g>
  <g transform="translate(493.16 322.76)">
   <path d="m0 0 9.277 0.242 0.118 0.494-9.801-0.178s0.679-0.305 0.406-0.558" fill="#00013a"/>
  </g>
  <g transform="translate(489.06 321.06)">
   <path d="m0 0 1.96 0.087s0.602-0.039 0.696-0.752c0 0 0.038-0.726-0.267-0.892l-2.385-0.197-0.238 4e-3s-0.284 0.147-0.36 0.936c0 0 0.155 0.866 0.594 0.814" fill="#00013a"/>
  </g>
  <g transform="translate(491.83 323.22)">
   <path d="m0 0-0.416-1.769s0.274-0.517 0.813-0.487c0 0 0.569 0.049 0.63 0.3l0.346 1.626s-0.231-0.263-0.759-0.136c0 0-0.523 0.108-0.614 0.466" fill="#00013a"/>
  </g>
  <g transform="translate(492.86 321.26)">
   <path d="m0 0 1.664 0.034 0.21 0.8s0.153-0.249 0.676-0.357c0 0 0.707-0.153 0.778 0.069l-0.171-0.711s0.272-0.42 0.155-0.905c0 0-0.071-0.443-0.654-0.587l-2.527-0.048s-0.493-0.502-0.864-0.129l-0.483 0.346s0.253 1.055-0.317 1.263c0 0-0.173 0.165-0.54 0.112l-0.697-0.027s0.126 1.333 1.331 1.114l0.146-0.052-0.15-0.735s0.308-0.525 0.813-0.487c0 0 0.514 0 0.63 0.3" fill="#00013a"/>
  </g>
  <g transform="translate(488.93 321.74)">
   <path d="m0 0-0.177-0.737s-0.095-0.101-0.165-0.244l-0.061-0.18-0.101 0.024-0.389-1.624s0.445-0.213 0.623-0.132l0.115 0.477s-0.386 0.314-0.239 1.147c0 0 0.122 0.431 0.346 0.554 0 0 0.367 0.054 0.493 0.059l0.128 0.536s-0.221-0.036-0.573 0.12" fill="#00013a"/>
  </g>
  <g transform="translate(487.18 321.4)">
   <path d="m0 0 0.302 1.256 0.401 0.045-0.326-1.356z" fill="#00013a"/>
  </g>
  <g transform="translate(487.12 327.01)">
   <path d="m0 0 2.114-2.7s0.138 0.02 0.182 0.036l-2.054 2.619s-0.142 0.074-0.242 0.045" fill="#00013a"/>
  </g>
  <g transform="translate(486.69 327.58)">
   <path d="m0 0s0.213 2e-3 0.059-0.638l0.206 0.083s0.234 0.754-0.265 0.555" fill="#00013a"/>
  </g>
  <g transform="translate(489.74 324.1)">
   <path d="m0 0 0.166 0.69 0.188-0.045-0.16-0.665z" fill="#00013a"/>
  </g>
  <g transform="translate(483.84 324.8)">
   <path d="m0 0 0.633-0.754 2.908 0.01 0.22 0.992-0.738-0.053-0.377-0.016 0.179 0.595-0.319 0.147 0.092 0.385-0.251 0.132 0.015 0.209-0.403 0.167-0.144 0.212 0.097 0.402-0.419 0.171-0.509 0.76-0.234 0.056z" fill="#00013a"/>
  </g>
  <g transform="translate(485.3 322.57)">
   <path d="m0 0 0.422-0.455-0.172-0.792 1.101 0.09 0.208 0.127 0.269 1.122z" fill="#00013a"/>
  </g>
  <g transform="translate(486.24 324.06)">
   <path d="m0 0 0.238 0.917 1.115 0.068-0.221-0.992z" fill="#00013a"/>
  </g>
  <g transform="translate(495.58 324.07)">
   <path d="m0 0 0.241 1.005-0.704 0.24-0.052 0.225-0.414 0.117-0.206 0.545-0.314 0.094-0.127 0.579-0.235 0.127-0.263 0.453-0.281 0.156-0.162 0.358-0.297 0.018-0.562-3.372 0.485-0.559z" fill="#00013a"/>
  </g>
  <g transform="translate(490.46 321.99)">
   <path d="m0 0-1.022 0.759 2.282 0.063-0.504-0.33 0.353-0.298s-0.595 0.249-1.109-0.194" fill="#00013a"/>
  </g>
  <g transform="translate(496.35 319.48)">
   <path d="m0 0 1.403 0.088-0.856 0.79-0.714-0.023s-0.018-0.226-0.191-0.504z" fill="#00013a"/>
  </g>
  <g transform="translate(497.61 319.7)">
   <path d="m0 0 0.219 0.62 0.096 0.101 0.22 0.621 0.083 0.05 0.11 0.24 0.274 0.253 0.144 0.674 0.111 0.168-0.447 0.426-0.342-0.024-0.268-0.379-0.156-0.724-0.458-0.58-0.187-0.629-0.111-0.168z" fill="#00013a"/>
  </g>
  <g transform="translate(499.63 321.47)">
   <path d="m0 0-0.157-0.653-0.372-0.371-0.269-0.75-0.281-0.358-0.253-1.054 1.214 0.115 0.132 0.624 0.426 0.517 0.199 0.608 0.163 0.386z" fill="#00013a"/>
  </g>
  <g transform="translate(498.68 322.6)">
   <path d="m0 0 5.691 0.245-0.202 0.19-5.646-0.203z" fill="#00013a"/>
  </g>
  <g transform="translate(504.21 316.05)">
   <path d="m0 0 5.462 1.132-0.282 0.157-5.327-1.165z" fill="#00013a"/>
  </g>
  <g transform="translate(472.86 322.37)">
   <path d="m0 0 2.246 0.133 9e-3 0.335-2.268-4e-3z" fill="#00013a"/>
  </g>
  <g transform="translate(475.38 322.49)">
   <path d="m0 0 2.221 0.104-0.028 0.326-2.246-0.063z" fill="#00013a"/>
  </g>
  <g transform="translate(478.41 322.62)">
   <path d="m0 0 2.255 0.096-0.083 0.321-2.209-0.054z" fill="#00013a"/>
  </g>
  <g transform="translate(481.01 322.72)">
   <path d="m0 0 1.937 0.102-0.115 0.293-1.947-0.028z" fill="#00013a"/>
  </g>
  <g transform="translate(480.74 312.95)">
   <path d="m0 0 5.52 0.711s-0.166 0.27-0.383 0.251l-5.278-0.662s0.186-0.187 0.141-0.3" fill="#00013a"/>
  </g>
  <g transform="translate(473.16 312.08)">
   <path d="m0 0 2.774 0.343s0.271 0.094 0.476 0.063l2.82 0.385-0.011 0.251-6.1-0.767s0.049-0.242 0.041-0.275" fill="#00013a"/>
  </g>
  <g transform="translate(472.91 323.53)">
   <path d="m0 0 1.073 0.079 0.365 0.302 0.616 0.02-0.041 0.125-2.067-0.052z" fill="#00013a"/>
  </g>
  <g transform="translate(472.69 329.62)">
   <path d="m0 0 3.747-0.103 0.034 0.399-3.737 0.11z" fill="#00013a"/>
  </g>
  <g transform="translate(476.97 329.53)">
   <path d="m0 0 3.652-0.133 0.016 0.359-3.665 0.119z" fill="#00013a"/>
  </g>
  <g transform="translate(493.78 328.29)">
   <path d="m0 0 2.688-0.167 0.039 0.238s-0.043 0.188-0.162 0.208l-2.372 0.153s-0.242-0.119-0.193-0.432" fill="#00013a"/>
  </g>
  <g transform="translate(496.59 328.1)">
   <path d="m0 0 2.639-0.182s-0.087 0.375-0.398 0.406l-1.99 0.194s-0.236-0.023-0.251-0.418" fill="#00013a"/>
  </g>
  <g transform="translate(481.18 320.52)">
   <path d="m0 0 0.216 0.604-0.082 0.249-0.33 0.027z" fill="#00013a"/>
  </g>
  <g transform="translate(478.57 318.52)">
   <path d="m0 0 0.63 0.044 0.058-0.351-0.876-0.108z" fill="#00013a"/>
  </g>
  <g transform="translate(489.39 320.2)">
   <path d="m0 0c0-0.48-0.207-0.87-0.462-0.869-0.255 0-0.462 0.389-0.461 0.87 0 0.48 0.207 0.869 0.462 0.869s0.461-0.39 0.461-0.87" fill="#033d8f"/>
  </g>
  <g transform="translate(491.8 323.08)">
   <path d="m0 0-0.38-1.635s0.046-0.198 0.339-0.361l0.416 1.733s-0.255 0.155-0.375 0.263" fill="#033d8f"/>
  </g>
  <g transform="translate(494.73 322.1)">
   <path d="m0 0-0.234-0.9s0.135-0.174 0.342-0.251l0.218 0.905s-0.27 0.148-0.326 0.246" fill="#033d8f"/>
  </g>
  <g transform="translate(492.06 319.51)">
   <path d="m0 0c-0.332 0.611 0.195 1.033 0.195 1.033l-2.344 1.892-0.474 0.309-2.306-0.084-0.288-1.126c0.672-0.374 1.035-0.116 1.035-0.116l0.141 0.072 5e-3 -0.125 0.342-0.348 2e-3 -0.213-0.213-0.073-0.369-1.541c0.114-0.186 0.516-0.354 0.516-0.354 0.268-0.064 0.63 0.115 0.63 0.115l0.123 0.289 0.105-0.079c0.51-0.459 0.774-0.097 0.774-0.097l0.022 0.314-0.887-0.079c-0.144-0.01-0.345 0.038-0.345 0.038-0.315 0.235-0.231 1.03-0.231 1.03 0.102 0.719 0.572 0.686 0.572 0.686l1.722 0.091s-0.204-0.04 0.071 0c0.276 0.041 0.562-0.17 0.562-0.17 0.505-0.405 0.224-1.205 0.224-1.205zm-1.97 1.607-0.455 0.02 0.149 0.62 0.39-0.289z" fill="#033d8f"/>
  </g>
  <g transform="translate(488.01 324.06)">
   <path d="m0 0s-0.46 0.682-0.365 0.858l-0.044 0.13-0.664 0.85-0.263 0.01s-0.55 0.478-0.13 0.895l-1e-3 0.053s-0.69 0.113-0.315 0.514c0 0 0.289 0.263 0.575 0.234 0 0 0.206 0.03 0.199-0.167l-0.047-0.414s0.588 0.071 0.85-0.443c0 0 0.356-0.232 0.475-0.566l1.149-1.299 0.098 0.242s0.24-0.163 0.428-0.209c0 0 0.408-0.018 0.454 0.01l-0.066-0.222s0.226-0.108-0.011-0.21l-0.066-0.277z" fill="#033d8f"/>
  </g>
  <g transform="translate(483.84 324.8)">
   <path d="m0 0 0.633-0.754 0.86 3.353-0.509 0.76-0.234 0.056z" fill="#033d8f"/>
  </g>
  <g transform="translate(485.68 326.82)">
   <path d="m0 0-0.748-2.743 0.21-0.014 0.674 2.512z" fill="#033d8f"/>
  </g>
  <g transform="translate(486.18 326.24)">
   <path d="m0 0 0.252-0.131-0.093-0.385-0.452-1.663-0.305-0.015z" fill="#033d8f"/>
  </g>
  <g transform="translate(492.2 324.62)">
   <path d="m0 0 0.295-0.319 0.726 3.315-0.163 0.358-0.296 0.018z" fill="#033d8f"/>
  </g>
  <g transform="translate(493.51 327.46)">
   <path d="m0 0-0.729-3.403 0.284 3e-3 0.708 2.947z" fill="#033d8f"/>
  </g>
  <g transform="translate(493.95 326.93)">
   <path d="m0 0 0.185-0.629-0.518-2.231-0.321-0.011z" fill="#033d8f"/>
  </g>
  <g transform="translate(494.45 326.2)">
   <path d="m0 0-0.511-2.127 0.367-0.017 0.349 1.599z" fill="#033d8f"/>
  </g>
  <g transform="translate(494.98 325.54)">
   <path d="m0 0-0.358-1.491 0.23-2e-3 0.268 1.264-0.052 0.226" fill="#033d8f"/>
  </g>
  <g transform="translate(494.27 322.31)">
   <path d="m0 0 0.116 0.486 0.159-3e-3 -0.129-0.536z" fill="#033d8f"/>
  </g>
  <g transform="translate(486.58 325.33)">
   <path d="m0 0-0.101-0.348 0.376 0.016-0.04 0.276z" fill="#033d8f"/>
  </g>
  <g transform="translate(489.63 321.14)">
   <path d="m0 0 0.129 0.536 0.411-0.205-0.085-0.352z" fill="#033d8f"/>
  </g>
  <g transform="translate(495.7 319.65)">
   <path d="m0 0 0.565-0.525 0.084 0.351-0.358 0.352s-0.25-0.153-0.291-0.178" fill="#033d8f"/>
  </g>
  <g transform="translate(497.81 322.45)">
   <path d="m0 0 0.946-0.192 0.111 0.169-0.446 0.425-0.343-0.024z" fill="#033d8f"/>
  </g>
  <g transform="translate(497.42 321.41)">
   <path d="m0 0 0.919-0.079 0.274 0.253-0.958 0.142z" fill="#033d8f"/>
  </g>
  <g transform="translate(499.47 320.82)">
   <path d="m0 0 0.815-0.072-0.658 0.725z" fill="#033d8f"/>
  </g>
  <g transform="translate(503.81 316.16)">
   <path d="m0 0s0.351 0.057 0.398-0.113l-0.03-0.418s-0.491-0.13-0.368 0.531" fill="#033d8f"/>
  </g>
  <g transform="translate(474.1 322.85)">
   <path d="m0 0 0.368 0.425-0.077 0.639-0.411-0.309z" fill="#033d8f"/>
  </g>
  <g transform="translate(473.12 312.36)">
   <path d="m0 0s0-0.443-0.137-0.569c0 0-0.308-0.033-0.2 0.491 0 0 0.173 0.277 0.337 0.078" fill="#033d8f"/>
  </g>
  <g transform="translate(480.63 312.55)">
   <path d="m0 0s0.266 0.964-0.261 0.612c0 0-0.225-0.495 0.261-0.612" fill="#033d8f"/>
  </g>
  <g transform="translate(475.29 323.93)">
   <path d="m0 0 2.009 0.031-0.013 0.127-2.009-0.031z" fill="#033d8f"/>
  </g>
  <g transform="translate(478.05 323.97)">
   <path d="m0 0 2.071 0.034-0.049 0.162-2.017-0.064z" fill="#033d8f"/>
  </g>
  <g transform="translate(480.54 324.02)">
   <path d="m0 0 1.825 0.04-0.045 0.108-1.831-0.029z" fill="#033d8f"/>
  </g>
  <g transform="translate(473.99 323.61)">
   <path d="m0 0-0.031 0.388 0.971 0.059 0.041-0.125-0.571-0.013z" fill="#033d8f"/>
  </g>
  <g transform="translate(475.39 322.16)">
   <path d="m0 0 0.133-1.289-0.215-0.232-0.121 1.34 0.154 0.122" fill="#033d8f"/>
  </g>
  <g transform="translate(480.97 322.6)">
   <path d="m0 0-0.201-0.323 0.408-1.764 0.216 0.604z" fill="#033d8f"/>
  </g>
  <g transform="translate(489.07 319.3)">
   <path d="m0 0 2.269 0.155s0.328 0.186 0.343 0.395l-2.363-0.105s-0.164-0.386-0.249-0.445" fill="#8ad7e9"/>
  </g>
  <g transform="translate(493.16 319.89)">
   <path d="m0 0 2.927 0.094s-0.256-0.328-0.669-0.353l-2.426-0.073z" fill="#8ad7e9"/>
  </g>
  <g transform="translate(483.01 322.51)">
   <path d="m0 0 8.706 0.3 0.038 0.159-8.803-0.224z" fill="#8ad7e9"/>
  </g>
  <g transform="translate(493.16 322.76)">
   <path d="m0 0 9.277 0.242 0.08 0.114-9.3-0.157z" fill="#8ad7e9"/>
  </g>
  <g transform="translate(493.05 319.82)">
   <path d="m0 0c-0.086-0.36-0.408-0.593-0.718-0.518-0.309 0.074-0.49 0.427-0.404 0.788 0.087 0.36 0.408 0.592 0.718 0.518s0.491-0.427 0.404-0.788" fill="#8ad7e9"/>
  </g>
  <g transform="translate(485.55 321.33)">
   <path d="m0 0 0.293 1.293 1.127 0.048-0.318-1.251z" fill="#8ad7e9"/>
  </g>
  <g transform="translate(494.64 321.76)">
   <path d="m0 0-0.281 0.085 0.192 0.946 0.781 7e-3 -0.108-0.523s-0.443 0.071-0.473-0.126z" fill="#8ad7e9"/>
  </g>
  <g transform="translate(494.42 322.26)">
   <path d="m0 0-0.49 0.171 0.06 0.322 0.559 0.043z" fill="#8ad7e9"/>
  </g>
  <g transform="translate(496.27 319.12)">
   <path d="m0 0 1.519 0.131 0.035 0.293-1.47-0.072z" fill="#8ad7e9"/>
  </g>
  <g transform="translate(495.78 318.11)">
   <path d="m0 0 1.114 0.069 0.12 0.573 0.431 0.464-1.173-0.09-0.122 0.082-0.239-0.403z" fill="#8ad7e9"/>
  </g>
  <g transform="translate(497 320.45)">
   <path d="M 0,0 0.931,-0.029 1,0.184 0.027,0.259 Z" fill="#8ad7e9"/>
  </g>
  <g transform="translate(497.42 321.41)">
   <path d="m0 0 0.919-0.079-0.193-0.29-0.949 0.104z" fill="#8ad7e9"/>
  </g>
  <g transform="translate(498.3 318.28)">
   <path d="m0 0 1.215 0.115 0.132 0.624 0.164 0.244-1.258 0.072z" fill="#8ad7e9"/>
  </g>
  <g transform="translate(498.83 319.69)">
   <path d="m0 0 1.271-0.093 0.043 0.256-1.258 0.071z" fill="#8ad7e9"/>
  </g>
  <g transform="translate(499.03 320.3)">
   <path d="m0 0 1.22-0.081 0.09 0.155-1.24 0.069z" fill="#8ad7e9"/>
  </g>
  <g transform="translate(504.18 315.63)">
   <path d="m0 0 1.034 0.248s0.339-0.135 0.542 0.117l1.138 0.241 0.458 0.067 0.696 0.169s0.386-0.093 0.613 0.118l1.022 0.198s0.173 0.206-0.012 0.392l-2.877-0.619-2.584-0.513z" fill="#8ad7e9"/>
  </g>
  <g transform="translate(473.04 311.72)">
   <path d="m0 0 2.503 0.32s0.307-0.198 0.662-0.195c0 0 0.412 0.167 0.52 0.247l2.34 0.306s0.198 0.307 0.167 0.474l-2.82-0.386s-0.319 0.077-0.476-0.063l-2.774-0.343s-0.182-0.24-0.122-0.36" fill="#8ad7e9"/>
  </g>
  <g transform="translate(480.63 312.55)">
   <path d="m0 0 2.145 0.229s0.649-0.245 0.918 0.063l2.365 0.335s0.357 0.304 0.205 0.482l-5.52-0.711z" fill="#8ad7e9"/>
  </g>
  <g transform="translate(487.91 319.14)">
   <path d="m0 0 0.028 0.117s0.416-0.445 0.998-0.16l-0.032-0.134s-0.572-0.314-0.994 0.177" fill="#8ad7e9"/>
  </g>
  <g transform="translate(489.12 319.25)">
   <path d="m0 0s0.387-0.527 0.807-0.176l0.025 0.1s-0.409-0.265-0.722 0.129c0 0-0.107-1e-3 -0.11-0.053" fill="#8ad7e9"/>
  </g>
  <g transform="translate(472.35 316.63)">
   <path d="m0 0 0.592 0.106-0.057 1.607-0.299-0.654z" fill="#8ad7e9"/>
  </g>
  <g transform="translate(479.08 319.09)">
   <path d="m0 0 0.345-1.659-0.901-0.138-0.141 0.813 0.188 0.415z" fill="#8ad7e9"/>
  </g>
  <g transform="translate(486.92 321.64)">
   <path d="m0 0s0.751-0.304 1.014-0.093l-0.035-0.142s-0.326-0.214-1.039 0.134z" fill="#8ad7e9"/>
  </g>
  <g transform="translate(474.47 323.28)">
   <path d="m0 0 8.022 0.216-0.11-0.381 9.481 0.167s0.219 0.177 0.893 0.033l9.802 0.178-0.541 0.626-19.656-0.06-7.968-0.141z" fill="#033d8f"/>
  </g>
  <g transform="translate(492.94 321.27)">
   <path d="m0 0s0.285-0.511 0.287-0.724l2.969 0.048s-0.032 0.38-0.18 0.504l-0.04-0.168s-0.278-0.269-0.772-0.115c0 0-0.624 0.203-0.705 0.382l0.024 0.1z" fill="#033d8f"/>
  </g>
  <g transform="translate(489.06 321.06)">
   <path d="m0 0 1.96 0.087s0.452-0.073 0.563-0.348c0 0 0.115-0.187 0.107-0.291l-2.325-0.097s-0.059 0.493-0.305 0.649" fill="#033d8f"/>
  </g>
  <g transform="translate(502.02 324.12)">
   <path d="m0 0 0.919 0.063s0.36-0.122 0.3-0.444l0.263-0.382 0.789-0.031 0.094-0.128-0.014-0.351-0.202 0.19-1.67-0.095 0.12 0.574z" fill="#033d8f"/>
  </g>
  <g transform="translate(493.21 322.89)">
   <path d="m0 0c-0.04-0.166-0.38-0.228-0.759-0.136-0.379 0.091-0.654 0.299-0.614 0.466s0.379 0.227 0.758 0.136c0.38-0.091 0.654-0.299 0.615-0.466" fill="#f3c27f"/>
  </g>
  <g transform="translate(496.19 321.81)">
   <path d="m0 0c-0.032-0.134-0.381-0.165-0.779-0.07-0.397 0.096-0.693 0.282-0.661 0.416s0.381 0.166 0.778 0.07c0.398-0.096 0.694-0.282 0.662-0.416" fill="#f3c27f"/>
  </g>
  <g transform="translate(474.41 323.65)">
   <path d="m0 0 7.981 0.155-0.028 0.255-7.968-0.141z" fill="#f3c27f"/>
  </g>
  <g transform="translate(482.46 323.69)">
   <path d="m0 0 19.749 0.211-0.243 0.257-19.601-0.104z" fill="#f3c27f"/>
  </g>
  <g transform="translate(493.11 320.93)">
   <path d="m0 0 1.595 0.077-0.202 0.191 0.024 0.1-1.665-0.034z" fill="#f3c27f"/>
  </g>
  <g transform="translate(491.5 320.89)">
   <path d="m0 0s-0.094 0.271-0.478 0.257l-1.961-0.087s0.171-0.174 0.218-0.274z" fill="#f3c27f"/>
  </g>
  <g transform="translate(489.82 321.75)">
   <path d="m0 0c-0.031-0.13-0.326-0.17-0.659-0.09s-0.578 0.25-0.547 0.38c0.032 0.129 0.327 0.169 0.66 0.089 0.332-0.08 0.577-0.25 0.546-0.379" fill="#f3c27f"/>
  </g>
  <g transform="translate(472.69 329.62)">
   <path d="m0 0 1.85-0.037 0.39-5.531-2.067-0.052z" fill="#f3c27f"/>
  </g>
  <g transform="translate(474.78 329.56)">
   <path d="m0 0 1.654-0.043 0.857-5.431-2.009-0.031z" fill="#f3c27f"/>
  </g>
  <g transform="translate(476.97 329.53)">
   <path d="m0 0 1.859-0.075 1.244-5.293-2.047-0.039z" fill="#f3c27f"/>
  </g>
  <g transform="translate(479.04 329.44)">
   <path d="m0 0 1.584-0.044 1.651-5.214-1.783-0.05z" fill="#f3c27f"/>
  </g>
  <g transform="translate(493.78 328.29)">
   <path d="m0 0 1.379-0.083 3.476-4.112-1.353-0.029z" fill="#f3c27f"/>
  </g>
  <g transform="translate(495.31 328.19)">
   <path d="m0 0 1.12-0.056 3.574-3.994-1.227-0.024z" fill="#f3c27f"/>
  </g>
  <g transform="translate(496.67 328.08)">
   <path d="m0 0 1.304-0.101 3.494-3.815-1.161-0.04z" fill="#f3c27f"/>
  </g>
  <g transform="translate(498.11 327.96)">
   <path d="m0 0 1.133-0.077 3.697-3.704-1.34-0.05z" fill="#f3c27f"/>
  </g>
  <g transform="translate(483.94 325.25)">
   <path d="m0 0 0.169 0.703-0.915-0.046z" fill="#f3c27f"/>
  </g>
  <g transform="translate(486.42 325.88)">
   <path d="m0 0 0.518 0.017 0.663-0.85-0.738-0.053-0.04 0.276-0.235 0.056 0.077 0.247-0.319 0.148z" fill="#f3c27f"/>
  </g>
  <g transform="translate(488.35 325.97)">
   <path d="m0 0 2.555 0.095 0.837-1.016-2.577-0.037z" fill="#f3c27f"/>
  </g>
  <g transform="translate(487.11 327.06)">
   <path d="m0 0 2.182 1.194 0.486-0.63-1.903-1.067s-0.275 0.403-0.765 0.503" fill="#f3c27f"/>
  </g>
  <g transform="translate(487.78 319.2)">
   <path d="m0 0 0.113-0.116 0.383 1.591-0.126 0.066z" fill="#f3c27f"/>
  </g>
  <g transform="translate(488.37 320.81)">
   <path d="m0 0 0.243 1.234s0.044-0.187 0.144-0.211l-0.253-1.055z" fill="#f3c27f"/>
  </g>
  <g transform="translate(491.42 321.45)">
   <path d="m0 0 0.409 1.7s0.085-0.198 0.152-0.214l-0.402-1.675s-0.147 0.053-0.159 0.189" fill="#f3c27f"/>
  </g>
  <g transform="translate(494.5 321.2)">
   <path d="m0 0 0.147-0.124 0.217 0.904-0.13 0.12z" fill="#f3c27f"/>
  </g>
  <g transform="translate(490.39 324.8)">
   <path d="m0 0c-0.014-0.059-0.214-0.061-0.446-6e-3 -0.232 0.056-0.409 0.149-0.395 0.208s0.214 0.062 0.446 6e-3 0.409-0.149 0.395-0.208" fill="#f3c27f"/>
  </g>
  <g transform="translate(486.65 326.86)">
   <path d="m0 0 2.197-2.799 0.15 0.017s0.089 0.205 0.242 0.234l-2.114 2.7s-0.248 0.019-0.475-0.152" fill="#f3c27f"/>
  </g>
  <g transform="translate(486.6 326.87)">
   <path d="m0 0s0.087 0.418-0.143 0.619c0 0 0.585 0.391 0.293-0.548z" fill="#f3c27f"/>
  </g>
  <g transform="translate(489.38 324.1)">
   <path d="m0 0 0.071 0.408-0.092 0.115 0.062 0.092 0.098 0.241 0.164-0.092-0.187-0.779z" fill="#f3c27f"/>
  </g>
  <g transform="translate(496.12 320.06)">
   <path d="m0 0 1.019 0.039-0.241 0.252-0.714-0.023z" fill="#f3c27f"/>
  </g>
  <g transform="translate(502.21 323.9)">
   <path d="m0 0 1.012 0.049s-0.143 0.212-0.215 0.211h-0.071l-0.914-0.047z" fill="#f3c27f"/>
  </g>
  <g transform="translate(502.52 323.11)">
   <path d="m0 0 1.862 0.084-0.093 0.129-1.717 5e-3z" fill="#f3c27f"/>
  </g>
  <g transform="translate(496.59 328.1)">
   <path d="m0 0s0.129 0.279 0.365 0.266l1.823-0.154s0.28-0.05 0.382-0.287l0.069-7e-3s-0.044 0.329-0.398 0.406l-2.025 0.194s-0.217-0.055-0.216-0.418" fill="#f3c27f"/>
  </g>
  <g transform="translate(496.43 328.13)">
   <path d="m0 0s-0.014 0.313-0.181 0.318l-2.248 0.15s-0.09 0.031-0.198-0.271l-0.048 0.021s0.019 0.447 0.316 0.393l2.27-0.173s0.285-0.104 0.089-0.438" fill="#f3c27f"/>
  </g>
  <g transform="translate(472.73 329.88)">
   <path d="m0 0 3.741-0.093-4e-3 0.134-3.737 0.11z" fill="#f3c27f"/>
  </g>
  <g transform="translate(476.97 329.76)">
   <path d="m0 0 3.658-0.144 8e-3 0.14-3.665 0.119z" fill="#f3c27f"/>
  </g>
  <g transform="translate(509.78 317.06)">
   <path d="m0 0c-7e-3 0.044-0.051 0.212-0.329 0.3l-5.042 5.563 0.052 0.287-0.154 0.187-0.718-1e-3 -0.302 0.358c0.013 0.041 0.027 0.114-3e-3 0.2-0.045 0.129-0.17 0.238-0.37 0.324l-3.621 3.636c-0.018 0.083-0.115 0.432-0.464 0.482l-1.991 0.195c-0.011 0-0.263 0.013-0.304-0.484l-1e-3 -1e-3 -0.013 0.015 0.042 0.249-2e-3 0.01c-2e-3 0.011-0.064 0.266-0.241 0.264l-2.334 0.154c-0.015 2e-3 -0.051 3e-3 -0.092-0.025-0.088-0.059-0.152-0.207-0.19-0.442l-5e-3 -0.024 3.514-4.173-1.562-7e-3 0.242 1.006-0.731 0.194-0.027 0.254-0.422 0.119-0.184 0.558-0.377 0.108-0.091 0.564-0.243 0.131-0.214 0.443-0.336 0.151-0.169 0.348-0.366 0.066-0.566-3.407-4e-3 -0.024 0.442-0.497-2.254-0.021h-0.015l0.049 0.202c0.035 0.015 0.088 0.047 0.097 0.104 0.011 0.068-0.047 0.122-0.089 0.153l0.036 0.15c0.014 0.013 0.024 0.028 0.029 0.046 0.024 0.099-0.126 0.178-0.259 0.227l0.499 0.011 1.139-0.012-0.886 1.114-2.613-0.079c-0.042 0.093-0.173 0.355-0.398 0.531l1.901 1.051-0.263 0.348-0.259 0.396-2.281-1.268-0.013 0.01c0.028 0.107 0.089 0.407-0.069 0.532-0.123 0.097-0.33 0.058-0.631-0.12-0.03-0.017-0.289-0.173-0.265-0.371 0.016-0.138 0.158-0.245 0.433-0.327-0.065-0.081-0.222-0.321-0.106-0.605l-0.148 0.092 0.046 0.194 1e-3 4e-3 3e-3 0.013-0.435 0.142-0.102 0.206 0.078 0.397 6e-3 0.023h-2e-3l3e-3 0.013-0.466 0.168-0.514 0.745-0.289 0.07-0.491-2.268-1.019-0.046 0.846-0.746-0.116-0.41 0.605-0.688-2.005-0.013-1.706 5.211 0.01-2e-3 -0.021 0.491-3.747 0.155-0.02-0.426 1.097-5.503-0.641-0.01-0.862 5.535 0.044 0.428-3.851 0.098-0.064-0.43 0.216-6.171 1.131 0.062 0.038-0.32 0.036-0.324-0.116 1e-3v-0.014l-1.122-0.018 0.044-4.357-0.287-0.793-0.302-1.14 0.647 0.113-0.051-4.234c-4e-3 -3e-3 -8e-3 -4e-3 -0.013-7e-3l7e-3 -0.014c-0.074-0.05-0.226-0.199-0.114-0.542 6e-3 -0.03 0.04-0.15 0.215-0.192 0.059-0.015 0.133-0.02 0.227-0.01l2.37 0.274c0.104-0.059 0.678-0.35 1.19 0.099l2.335 0.305 9e-3 5e-3c0.015 9e-3 0.342 0.22 0.154 0.96l-0.63 3.928 0.785 0.126 0.944-4.205c-0.028-0.07-0.128-0.348-1e-3 -0.53 0.079-0.114 0.228-0.164 0.443-0.149l1.971 0.23c0.096-0.046 0.62-0.272 0.952 0.067l2.399 0.343 0.01 8e-3c0.01 7e-3 0.238 0.181 0.221 0.509l-2e-3 0.014c-3e-3 7e-3 -0.059 0.167-0.282 0.281l-2.944 8.527 2.151 0.056 0.407-0.47-0.191-0.795 1.233 0.065 0.164 0.127c0.167-0.069 0.866-0.334 1.109-0.057l8e-3 0.01-0.016-0.066 0.358-0.352-0.041-0.175-0.151-0.035-0.387-1.612 0.015-0.02c6e-3 -7e-3 0.523-0.663 1.203-0.231l0.016 0.01 0.087 0.271 0.184-0.148c0.023-0.022 0.194-0.184 0.401-0.181 0.112 1e-3 0.212 0.048 0.298 0.14l0.01 0.01 0.071 0.294 1.198 0.072c0.044-3e-3 0.31-9e-3 0.449 0.304 0.089-0.07 0.27-0.209 0.45-0.325 0.039-0.031 0.082-0.057 0.128-0.077 6e-3 -4e-3 0.012-7e-3 0.018-0.011l7e-3 -4e-3 9e-3 -1e-3c2e-3 0 7e-3 -2e-3 0.015-3e-3l0.039-0.012c0.211-0.05 0.426 0.034 0.578 0.201l0.054 0.045 2.497 0.064v-4e-3c0.014 1e-3 0.026 3e-3 0.039 5e-3l0.222 6e-3 0.341-0.35-0.221-0.385-0.18-0.808 1.247 0.108 0.138 0.575 0.434 0.454-5e-3 6e-3 0.342 0.027-4e-3 0.052 0.06 0.251 0.011 1e-3 -9e-3 7e-3 5e-3 0.017-0.193 0.222 0.151 0.496 0.099 0.046 0.24 0.706 0.052 0.012 0.132 0.263 0.267 0.265 0.174 0.723 0.068 0.089 0.697-0.879-0.19-0.65-0.355-0.374-0.26-0.788-0.266-0.293-0.278-1.155 1.307 0.131 0.17 0.708 0.401 0.417 0.164 0.606 0.184 0.373 3.318-4.317-0.021-0.22c-1e-3 -6e-3 -0.019-0.144 0.084-0.243 0.039-0.038 0.089-0.063 0.15-0.078 0.085-0.02 0.19-0.019 0.316 5e-3l0.848 0.197c0.174-0.059 0.51-0.093 0.654 0.161l0.964 0.198c0.034 2e-3 0.236 0.012 0.438 0.08l0.864 0.171c0.068-0.015 0.41-0.08 0.559 0.106l1.075 0.231 0.011 0.011c5e-3 6e-3 0.125 0.131 0.059 0.296m-1.198-0.444-7e-3 -2e-3 -0.012-0.016c-0.077-0.112-0.278-0.109-0.403-0.091-0.048 0.026-0.08 0.065-0.087 0.111-7e-3 0.047 0.012 0.096 0.054 0.137 0.044 0.045 0.108 0.075 0.179 0.086 0.047 8e-3 0.095 6e-3 0.137-4e-3 0.085-0.021 0.144-0.073 0.154-0.137 4e-3 -0.028-1e-3 -0.057-0.015-0.084m-1.737-0.014c-0.028 0.044-0.057 0.08-0.085 0.106l0.099 0.022 1e-3 -3e-3 2.56 0.535c0.071-0.023 0.123-0.051 0.16-0.078zm-1.303-0.343c0.084-0.021 0.143-0.073 0.154-0.137 7e-3 -0.047-0.012-0.096-0.055-0.138-0.044-0.044-0.107-0.074-0.179-0.085-0.047-8e-3 -0.094-6e-3 -0.137 4e-3 -0.085 0.02-0.144 0.073-0.154 0.137-7e-3 0.046 0.012 0.096 0.054 0.137 0.044 0.045 0.108 0.075 0.18 0.086 0.013 2e-3 0.025 3e-3 0.038 4e-3l1e-3 -5e-3 0.029 5e-3c0.024 0 0.047-3e-3 0.069-8e-3m-0.075 0.063c-0.024 0-0.047-1e-3 -0.071-5e-3 -0.032-5e-3 -0.063-0.014-0.092-0.026v2e-3l-1.065-0.224c-0.015 0.041-0.036 0.075-0.065 0.101-5e-3 5e-3 -0.011 9e-3 -0.016 0.013l2.265 0.456 3e-3 -3e-3 0.205 0.044c0.022-0.014 0.064-0.046 0.105-0.099zm-7.741 5.448 0.132 0.596 0.849-0.11-0.137-0.574zm-0.109-0.014-0.435-0.544-3e-3 -0.012-9e-3 1e-3 -2e-3 -0.035-0.2-0.624-0.076-0.138-0.638-0.013c0.054 0.399-0.121 0.687-0.175 0.765l0.151 0.63h-2e-3c2e-3 5e-3 4e-3 8e-3 5e-3 0.012 0.046 0.19-0.316 0.382-0.697 0.473-0.089 0.022-0.18 0.038-0.267 0.047l0.107 0.446 2.65 0.048-0.256-0.364zm0.272-1.317-0.831 0.053 3e-3 4e-3 0.191 0.595 0.839-0.059zm-0.235-0.832-1.243-0.083-0.211 0.204 1.224 0.091zm-1.503 0.17-0.077 0.074c0.055 0.067 0.096 0.13 0.127 0.188l0.942 0.04 0.229-0.212zm-0.641-0.091-2.414-0.062c0.452 0.78 0.067 1.376-0.115 1.592l1.498 0.026-0.024-0.099 0.025-0.021c0.021-0.016 0.327-0.264 0.724-0.36 0.243-0.058 0.519-0.059 0.784 0.087l0.02 0.01 0.036 0.153c0.065-0.124 0.151-0.352 0.104-0.636v-9e-3c0-0.025-5e-3 -0.602-0.638-0.681m-2.78-0.241c-7e-3 -6e-3 -0.015-0.011-0.023-0.016-6e-3 -3e-3 -0.012-7e-3 -0.018-9e-3 -0.111-0.057-0.276-0.045-0.345-0.037-0.019 7e-3 -0.037 0.014-0.055 0.022-0.024 0.014-0.049 0.029-0.074 0.045-0.17 0.127-0.254 0.375-0.193 0.628 0.078 0.323 0.361 0.532 0.632 0.467 0.27-0.065 0.427-0.38 0.35-0.703-0.029-0.118-0.085-0.222-0.159-0.302zm-1.168 1.503c-0.145 0.176-0.36 0.261-0.641 0.252l-0.342-0.013c0.024 0.136 0.104 0.469 0.347 0.658 0.153 0.12 0.35 0.162 0.582 0.127l-0.112-0.514-1e-3 -0.01c-5e-3 -0.266 0.482-0.467 0.538-0.489l4e-3 -1e-3 4e-3 -2e-3c0.033-6e-3 0.736-0.147 0.939 0.22 0.135-0.15 0.478-0.616 0.244-1.253 0.036 0.34-0.149 0.654-0.446 0.725-0.327 0.079-0.667-0.166-0.759-0.545-0.04-0.167-0.025-0.333 0.032-0.472-0.097 0.07-0.179 0.134-0.223 0.169 0.027 0.139 0.136 0.781-0.166 1.148m-1.399 0.224c8e-3 0.091 0.048 0.234 0.065 0.29l0.012 0.039-0.015 9e-3c0.043 0.125 0.17 0.426 0.459 0.586 0.233 0.13 0.522 0.139 0.858 0.03l-0.013-0.055c-0.263 0.041-0.487-8e-3 -0.666-0.147-0.286-0.222-0.367-0.606-0.387-0.741zm-1.142-1.786-2e-3 2e-3 -2e-3 -4e-3c-0.022-0.014-0.044-0.025-0.066-0.031l-0.069-5e-3v-3e-3c-0.01 1e-3 -0.019 2e-3 -0.028 4e-3 -0.204 0.049-0.347 0.425-0.325 0.854 0.012 0.229 0.069 0.442 0.159 0.598 0.084 0.146 0.186 0.224 0.287 0.219 0.011-1e-3 0.022-3e-3 0.034-5e-3 0.204-0.049 0.347-0.424 0.324-0.854-0.012-0.229-0.069-0.442-0.159-0.598-0.046-0.081-0.099-0.14-0.153-0.177m-0.648 1.358 6e-3 0.027c0.033-0.019 0.075-0.039 0.126-0.051 0.01-3e-3 0.02-5e-3 0.031-6e-3 -0.01-0.024-0.019-0.049-0.028-0.074-0.091 0.026-0.161 0.059-0.208 0.088zm0.107-0.204c-0.027-0.104-0.044-0.216-0.05-0.332-9e-3 -0.181 9e-3 -0.353 0.049-0.499-0.315 0.089-0.411 0.223-0.433 0.263l0.166 0.69c0.054-0.038 0.142-0.087 0.268-0.122m-0.465-0.696c0.075-0.079 0.221-0.184 0.503-0.253 0.046-0.114 0.105-0.206 0.177-0.267-0.385 8e-3 -0.659 0.238-0.731 0.307zm0.895 1.281 1e-3 -0.012c-0.115-0.022-0.223-0.112-0.31-0.262-9e-3 -0.016-0.018-0.034-0.026-0.051-0.078 7e-3 -0.139 0.04-0.173 0.063l0.035 0.147 7e-3 0.028 0.203 0.848c0.09-0.107 0.272-0.206 0.504-0.261 0.226-0.055 0.429-0.052 0.558-1e-3l-0.114-0.474zm-5.844 1.494-0.149 0.472 8.873 0.162c-4e-3 -9e-3 -7e-3 -0.018-9e-3 -0.026v-1e-3l-0.08-0.366zm0.241-8.977-0.242-0.03-1.823 6.815-5e-3 0.024 0.134 0.455 1.982-7.257zm-0.315-0.159 0.105 0.018 2.919 0.361c0.094-0.051 0.151-0.109 0.182-0.152l-2.864-0.363 1e-3 -5e-3c-0.04 2e-3 -0.081 0-0.121-7e-3 -0.041-6e-3 -0.081-0.017-0.118-0.032l-2.318-0.267c-8e-3 0.049-0.024 0.116-0.056 0.171l2.269 0.281zm0.543-0.606c-0.056-0.057-0.137-0.097-0.229-0.112-0.059-0.01-0.12-7e-3 -0.174 6e-3 -0.106 0.025-0.181 0.09-0.194 0.169-9e-3 0.058 0.014 0.119 0.066 0.172 0.033 0.033 0.076 0.06 0.124 0.08l0.015 2e-3v4e-3c0.028 0.011 0.058 0.02 0.089 0.025 0.06 0.01 0.12 8e-3 0.174-5e-3 0.107-0.026 0.181-0.091 0.194-0.17 0.01-0.058-0.013-0.119-0.065-0.171m-2.345 7.781-0.157 0.694 0.247-0.03 0.049-0.192zm-0.182 0.801-0.17 0.757 0.226-0.054 0.188-0.732zm-0.151 0.859 0.11 0.217 0.067-0.26zm-0.065 0.099-0.135 0.592 0.187 6e-3 0.084-0.328zm-1.73-3.405 0.142-0.725-0.681-0.066 0.102 0.287zm-0.528-0.451-0.103-0.29-0.819 4.631 0.698 0.017 0.728-3.776zm-2.523-5.864 0.376 0.047 2.797 0.331c7e-3 -0.059 0.01-0.113 9e-3 -0.162l-2.818-0.351c-0.069 0.016-0.144 0.018-0.217 7e-3 -0.073-0.012-0.141-0.037-0.2-0.073l-2.771-0.344c9e-3 0.058 0.015 0.141-4e-3 0.211l2.828 0.336zm0.468-0.587c-0.056-0.057-0.137-0.097-0.228-0.111-0.06-0.01-0.121-9e-3 -0.175 5e-3 -0.107 0.025-0.181 0.09-0.194 0.17-9e-3 0.057 0.014 0.118 0.065 0.17 0.056 0.058 0.137 0.097 0.229 0.112 0.06 0.01 0.12 8e-3 0.175-5e-3 0.106-0.026 0.181-0.091 0.193-0.17 0.01-0.058-0.013-0.119-0.065-0.171m-0.375 0.704-0.723 7.799 0.105 0.142 0.807-7.918zm-0.737 7.954-0.106 1.139 0.092 0.148 0.117-1.147zm-0.191 2.049 0.099 0.011 0.061-0.605-0.091-0.146zm0.202 0.018 2.128 0.071 0.043-0.24-2.144-0.098zm-0.011 0.108-0.057-7e-3 -0.316-0.01 0.076 0.318 0.553 0.016-0.076-0.316-0.18-6e-3zm-0.367 1.044-0.408 5.535 0.127-1e-3 0.53-5.53zm-0.514 5.56 0.402-5.445-1.963-0.034-0.194 5.528zm0.409-5.548 1e-3 -0.013-0.484-8e-3 -2e-3 0.013zm9e-3 -0.116v-4e-3l0.46 4e-3 -1e-3 7e-3 1.907 0.03 2e-3 -8e-3 0.854 0.018-1e-3 4e-3 1.96 0.031v-1e-3l0.356 6e-3 1.872 0.03 0.13-0.436-7.936-0.233-0.08 0.544zm2.115 5.605 1.785-0.067 1.221-5.2-1.949-0.042zm1.871-0.07 0.089-4e-3 1.487-5.34h-0.026l-0.273-5e-3zm1.674-5.299 1.708 0.011 9e-3 -0.027-1.705-0.027zm1.25-0.968 0.07 0.292 0.567 0.017-0.098-0.291zm-1.429-0.047 0.072 0.298 0.678 0.02-0.071-0.296zm-3.445-0.114 0.074 0.311 3.336 0.098-0.072-0.299zm-0.032 0.308-0.075-0.311-1.179-0.039 0.076 0.315zm4.334 0.127 0.535 0.015-0.071-0.293-0.535-0.017zm-6.747-0.177 1e-3 -0.021 0.468 0.014-0.077-0.319-0.602-0.019h-0.089zm3.917-0.313 2.14 0.071 0.053-0.233-2.146-0.079zm2.597-0.147-0.059 0.231 1.862 0.061 0.066-0.21zm17.66 1.422-3.256 3.773 3.271-3.773zm-2.054 3.812 3.628-3.841-0.158 3e-3 -3.482 3.846zm0.126 0.017 1.126-0.091 3.521-3.75-1.003-0.017zm1.306-0.126 1.812-1.936-1.816 1.935zm2.253-3.837 0.188-4e-3 -7e-3 7e-3 1.472 0.025 0.547-0.537-2.977-0.06-0.497 0.548zm4.044-0.934-0.033-0.184-0.134 0.135-1.444-0.046 0.021-0.019-0.197-7e-3 0.018 0.073zm2.512-6.31-5.062 5.891 1.166 0.047 4.965-5.715zm-0.232-0.048-0.161-0.032-4.957 5.908 0.201 6e-3 5.031-5.857zm-6.698 6.164-0.433-0.012 0.101 0.469 1.922 0.039-0.112-0.466-0.067-2e-3 7e-3 -8e-3 -1.409-0.029zm-1.296 0.422 0.848 0.032 8e-3 -9e-3 -0.099-0.46-0.868-0.023zm9.396-6.274-4.911 5.654 0.05 3e-3 4.923-5.644zm-4.951 5.765-0.101 0.095 1.163 0.037 0.091-0.091zm-0.235 3e-3 -1.193-0.049-0.074 0.071 1.202 0.044zm-0.39 0.153-0.938-0.035 0.11 0.457-0.024 6e-3 0.96 0.02zm-2.32-0.26-0.075 0.081 1.291 0.027 0.097-0.077zm8.089-5.641-4.933 5.654 1.087 0.038 4.95-5.461zm-9.331 6.937 0.5-0.551-0.858-0.032-0.526 0.568zm-0.365-0.687-0.107-0.444-3.863-0.069-0.056 0.01-3e-3 -0.011-1.081-0.019v-5e-3l-0.168-3e-3c7e-3 0.015 0.014 0.03 0.018 0.045 0.035 0.148-0.108 0.31-0.355 0.426zm-3.809-1.589 0.015 0.051h-3e-3l0.04 0.164c0.117-0.125 0.37-0.235 0.631-0.298 0.263-0.063 0.539-0.08 0.699-0.022l-0.178-0.744c-0.564-0.291-1.212 0.154-1.347 0.255zm0.708 0.017c-0.406 0.098-0.639 0.271-0.62 0.348 0.018 0.077 0.304 0.126 0.71 0.029 0.407-0.098 0.639-0.272 0.621-0.348-0.019-0.077-0.305-0.126-0.711-0.029m-0.721 0.372-0.075-0.314-0.204 0.05v2e-3l3e-3 -1e-3 0.156 0.847 0.688 0.013-0.105-0.437c-0.238 0.012-0.433-0.032-0.463-0.16m-4.859-0.427c4e-3 7e-3 6e-3 0.013 8e-3 0.021 0.039 0.163-0.202 0.352-0.561 0.438-0.21 0.05-0.399 0.051-0.529 0.01l0.039 0.162 2.377 0.069c0.033-0.025 0.123-0.09 0.259-0.178-0.306 0.074-0.575 0.049-0.8-0.076-0.305-0.169-0.446-0.473-0.499-0.622zm1.683 0.587c-0.1 0.064-0.177 0.117-0.229 0.154l0.296 0.128zm0.442-1.269c-0.126 0.051-0.465 0.223-0.469 0.385l0.343 1.575c0.103-0.132 0.319-0.254 0.596-0.32 0.312-0.075 0.586-0.054 0.728 0.043l-0.345-1.437c-0.091-0.382-0.792-0.258-0.853-0.246m1.988 1.677-0.069-0.356 0.489-0.144-0.072-0.41 0.296-0.071-0.12-0.408-1.549-0.026 0.337 1.403zm0.106 7e-3 0.414 8e-3 -0.075-0.415-0.394 0.117zm-0.899 0.154c-0.028-0.119-0.323-0.188-0.7-0.098-0.378 0.091-0.608 0.287-0.58 0.405v1e-3c0.028 0.118 0.323 0.188 0.7 0.097 0.378-0.091 0.609-0.286 0.58-0.405m-4.995-0.249c-0.038-6e-3 -0.069-0.016-0.08-0.02l-0.026-0.01-0.126-0.526c-0.28-0.16-0.759 0.073-0.857 0.124l0.1 0.416 0.994 0.028zm-1.132-0.019h0.038l-0.256-1.066-0.047-0.036zm0.019-0.515c0.071-0.035 0.22-0.104 0.39-0.145 0.151-0.037 0.318-0.05 0.461 0l-0.043-0.179 0.045-0.037c-0.37-0.101-0.809 0.113-0.902 0.161zm1.297 0.551 3.324 0.093-0.494-0.214-2.412-0.069zm0.917-0.553c0.304-0.073 0.508-0.229 0.495-0.323l-0.013 7e-3 -0.012-0.051c-0.075-0.068-0.301-0.094-0.566-0.031-0.282 0.068-0.477 0.207-0.494 0.302l8e-3 0.034-5e-3 1e-3c0.036 0.089 0.286 0.134 0.587 0.061m0.434-0.956 0.116 0.479 0.3-0.179c-0.019-0.065-0.052-0.19-0.059-0.283l-0.148-9e-3zm6.526-1.062c0.04 0.084 0.058 0.153 0.064 0.196l0.61 0.013 0.188-0.173zm2.521 2.263-0.842 0.109 0.246 0.351 0.256 4e-3 0.226-0.238 0.043 1e-3 0.14-0.137zm-0.155 0.454 1.291 0.034 0.114-0.111-1.28-0.045zm1.659-0.22 4.975-6.079-0.1-0.022-4.925 6.098zm0.076 0.07 1.024 0.024 4.994-5.954-1-0.201zm3.969 0.585-1.698-0.046 0.016 0.068 0.95 0.027h0.692zm-0.842 0.149-0.814-0.023 0.047 0.201-0.045-1e-3 -0.09 0.088 0.65 0.033zm-0.27 0.529c0.019-0.055 0.013-0.101 5e-3 -0.128l-0.737-0.037-0.356 0.349 0.896 0.015c0.1-0.059 0.166-0.127 0.192-0.199m-0.362 0.3-1.162-0.02-3.483 3.721 1.044-0.084zm-5.995 4.265 1.987-0.194c0.237-0.033 0.33-0.239 0.363-0.347l-2.536 0.204c0.041 0.335 0.186 0.337 0.186 0.337m3.126-4.313-1.088-0.018-3.47 4.002 1.013-0.069zm-5.988 4.522 2.349-0.155c0.084 1e-3 0.13-0.137 0.141-0.174l-0.03-0.176-2.613 0.179c0.062 0.318 0.156 0.325 0.153 0.326m-0.096-0.433 1.236-0.085 3.476-4.027-1.234-0.02zm3.469-4.232-1e-3 -4e-3 0.526 9e-3 0.526-0.568-5.767-0.073c-6e-3 2e-3 -0.012 4e-3 -0.018 5e-3 -0.311 0.075-0.585 0.054-0.728-0.043l-9.101-0.165 3e-3 -9e-3 -0.317-0.011 0.098 0.29-5e-3 1e-3 0.024 1e-3 -0.16 0.538 0.054 1e-3v3e-3l1.862 0.012v-2e-3h2.972l-1e-3 -3e-3 0.83-1e-3 -3e-3 5e-3h2.136v-1e-3l0.082 1e-3 5.55 1e-3v7e-3zm-12.441 0.088h-0.32l0.795 3.235 0.34-0.123zm1.886 1.736 0.147 6e-3v-1e-3l0.403-0.54v-2e-3l0.177-0.214-0.614-0.035-0.019 0.284-0.221 0.037 0.073 0.234-0.321 0.149 0.016 0.068 0.341 0.013 0.041-0.025zm1.48 0.084 3e-3 -9e-3 0.013 1e-3 0.358-0.41c-0.139 0.046-0.328 0.077-0.518 0.014-0.194-0.066-0.347-0.219-0.457-0.455l-0.226 0.273c6e-3 0.072 0.043 0.341 0.241 0.495 0.143 0.11 0.339 0.141 0.586 0.091m1.34-0.846-0.44-0.01-0.296 0.33-5e-3 5e-3 -0.452 0.517 1.364 0.041 0.61-0.866-0.601-0.013c-0.062 5e-3 -0.126 6e-3 -0.18-4e-3m0.232-0.77c0.125-0.03 0.274-0.046 0.435-0.026l-0.041-0.168-0.81 0.022 0.074 0.305c0.068-0.038 0.188-0.096 0.342-0.133m-0.468 0.052c-0.071-2e-3 -0.268-0.031-0.448-0.255h-0.86l-0.256 0.364c-2e-3 2e-3 -0.11 0.194-0.098 0.451l7e-3 -3e-3c0.1 0.27 0.248 0.439 0.44 0.504 0.291 0.099 0.599-0.071 0.644-0.098l0.304-0.339 1e-3 -0.02h0.017l0.246-0.274c-0.014-0.017-0.026-0.038-0.029-0.063-5e-3 -0.045 0.017-0.087 0.066-0.127zm-2.586 0.892 0.014-0.203-0.223-0.013 0.058 0.241zm-0.289-0.322 1.052 0.06-0.213-0.885h-1.037zm0.945-0.825 0.167 0.692c0.018-0.221 0.105-0.372 0.111-0.384l0.218-0.308zm1.818 0.862 0.224 5e-3 -0.048-0.201zm-2.807 0.961 0.023 0.094 0.141-0.087zm-0.066-0.27 0.224-0.103-0.055-0.176-3e-3 1e-3 -0.011-0.047-0.012-0.039h3e-3l-0.064-0.264-0.053-3e-3 -0.221-0.922-0.247-1e-3zm9.384-0.614-0.226-0.938h-0.639l0.234 1.105zm-0.709 0.257-8e-3 2e-3 -0.254-1.197h-0.425l0.322 1.477 0.344-0.098zm-0.446 0.355-8e-3 2e-3 -0.339-1.552h-0.602l0.496 2.135 0.287-0.082zm-0.553 0.614 1e-3 -1e-3 -0.503-2.163h-0.196l0.606 2.73zm-0.321 0.701 0.137-0.074-0.619-2.791h-0.408l0.698 3.262zm-1.468-2.317 0.546 3.279 0.212-0.037 0.162-0.334 0.266-0.12-0.71-3.32zm-3.212-0.549c0.115 0.113 0.226 0.142 0.285 0.149l-0.036-0.149zm1.32 0.322c-1e-3 -7e-3 -0.025-0.023-0.051-0.031-0.434-0.085-0.798 0.142-0.834 0.166l-4e-3 3e-3c-0.049 0.032-0.05 0.049-0.05 0.049 0 8e-3 0.023 0.026 0.046 0.035l0.026 9e-3 0.048 0.202c0.119-0.087 0.337-0.142 0.371-0.15 0.033-8e-3 0.237-0.055 0.381-0.037l-0.037-0.154 0.03-0.02c0.073-0.047 0.074-0.071 0.074-0.072m-0.391 0.517c0.207-0.05 0.335-0.123 0.363-0.158l-0.011 3e-3 -2e-3 -7e-3c-0.053-0.016-0.192-0.018-0.382 0.028-0.207 0.05-0.336 0.123-0.364 0.159 5e-3 2e-3 0.012 4e-3 0.02 6e-3l0.172 3e-3c0.059-5e-3 0.127-0.016 0.204-0.034m1.632 0.148-0.828 8e-3v4e-3l-0.097-2e-3h-0.044v-2e-3l-0.141-3e-3 -0.61 0.868 1.002 0.03zm-3.405 0.944c-0.245 0.036-0.446-6e-3 -0.598-0.124-0.171-0.134-0.239-0.332-0.264-0.461l-0.316 0.423c0.01 0.07 0.06 0.326 0.262 0.487 0.137 0.11 0.318 0.155 0.538 0.137 0.191-0.133 0.318-0.344 0.378-0.462m1.278 1.855 0.193-0.255-1.825-1.01c-0.067 0.103-0.252 0.349-0.554 0.422-2e-3 1e-3 -4e-3 1e-3 -7e-3 2e-3 -0.027 6e-3 -0.053 0.01-0.08 0.013l2.064 1.147zm-2.965-0.991c-0.229 0.067-0.356 0.151-0.367 0.242-0.013 0.111 0.15 0.232 0.215 0.27 0.25 0.147 0.433 0.192 0.514 0.128 0.109-0.086 0.055-0.358 0.025-0.455l-0.01-0.035 0.015-0.012c-0.113-0.031-0.229-0.087-0.347-0.167-0.016 0.017-0.033 0.026-0.045 0.028zm0.063-0.14c0.15 0.108 0.295 0.175 0.435 0.198l2e-3 -2e-3 4e-3 2e-3c0.084 0.014 0.166 0.011 0.244-7e-3 3e-3 0 5e-3 -1e-3 7e-3 -1e-3 0.238-0.057 0.398-0.244 0.47-0.347-0.205 1e-3 -0.379-0.052-0.517-0.162-0.193-0.154-0.263-0.375-0.289-0.493l-0.246-0.01-0.114 0.132c-0.31 0.36-9e-3 0.676 4e-3 0.69m-0.208-0.682-0.081-0.335h-1e-3l-0.463-1.639h-0.178l0.546 2.084zm-0.603 0.481 0.384-0.126-0.611-2.329h-0.548l0.689 2.627zm-2.462-0.7 0.741 0.033-0.127-0.574zm0.584-1.038 0.119 0.419-8e-3 6e-3 6e-3 -1e-3 0.209 0.942-5e-3 1e-3 0.423 1.952 0.147-0.036 0.488-0.707-0.795-3.24zm-1.664-0.603-1.703-0.011-1.465 5.189 1.491-0.056zm-1.667 5.477 0.01-0.252-0.037 1e-3 -0.019 5e-3 1e-3 -4e-3 -3.517 0.132 0.013 0.264zm-2.474-5.634 1.952 0.042 0.012-0.05-1.956-0.031zm-2.744-0.083-3e-3 0.032 1.899 0.033 5e-3 -0.035zm1.88 0.169-1.893-0.034-0.519 5.41 1.584-0.044zm-0.807 5.726-0.029-0.29-3.66 0.101 0.042 0.282zm-3.497-5.923 1.429 0.025-0.015-0.013h-0.031l1e-3 -0.027-0.349-0.3-1.022-0.056zm1.141-0.36 0.26 0.224 0.076-0.526-0.265-0.307-0.027 0.242zm0.093-0.815-1e-3 0.01 0.125-1e-3 0.785 0.026 0.024-0.264-2.18-0.092-3e-3 0.301zm-1.285-5.048-0.208-0.037 0.195 0.54zm-0.239-0.147 0.241 0.042 0.021-0.838-0.496-0.087zm0.376-0.776-0.011-2e-3 -0.044 1.743h-4e-3l-0.039 3.805 2.189 0.093 0.895-9.656-2.866-0.34 1e-3 -5e-3c-6e-3 6e-3 -0.012 0.011-0.019 0.017-0.04 0.031-0.091 0.039-0.153 0.026zm-0.173-4.903-2e-3 0.01c-0.115 0.349 0.082 0.435 0.09 0.439l0.032 0.012 1e-3 4e-3c0.039 0.014 0.069 0.015 0.085 2e-3 0.046-0.035 0.037-0.181 0.016-0.27l-0.103-0.302c-0.106 0.033-0.118 0.102-0.119 0.105m2.749 0.151-0.016 0.01-2.404-0.279c-0.036-3e-3 -0.067-4e-3 -0.096-4e-3l0.086 0.25 2.665 0.332c-0.049-0.068-0.068-0.145-0.056-0.22 0.014-0.09 0.074-0.167 0.163-0.217-0.195 0.036-0.33 0.121-0.342 0.128m3.449 0.406-2.344-0.306-0.011-0.011c-0.024-0.021-0.048-0.04-0.072-0.058 0.039 0.063 0.055 0.132 0.043 0.201-0.011 0.071-0.05 0.132-0.109 0.18l2.64 0.329c-0.026-0.22-0.121-0.313-0.147-0.335m0.129 0.705-2.773-0.329-0.818 8.03 1e-3 2e-3 -2e-3 2e-3 -0.161 1.582 2.151 0.098 0.772-4.368-0.014-2e-3 0.184-1.001 8e-3 2e-3 0.622-3.876c0.013-0.049 0.022-0.096 0.03-0.14m-0.587 4.189-0.124 0.671 0.027 0.076 0.739 0.071 0.136-0.693zm0.893 0.143-0.013-2e-3 -0.311 1.584-0.024-5e-3 0.022 0.026-0.671 3.479 2.15 0.078 0.091-0.398-0.013-0.025 0.019-4e-3 0.405-1.788-1e-3 -4e-3 0.013-0.049 0.051-0.226 9e-3 2e-3 1.759-6.579-2.345-0.29v-3e-3c-0.057 0.022-0.121 0.012-0.191-0.029zm0.948-4.792c-0.093 0.132-0.017 0.356 9e-3 0.424 0.037 0.03 0.103 0.076 0.146 0.058 0.06-0.026 0.089-0.162 0.094-0.233l-0.097-0.343c-0.069 0.017-0.12 0.048-0.152 0.094m2.347 0.127-1.999-0.233c-0.029-2e-3 -0.056-2e-3 -0.081-1e-3l0.087 0.31 2.123 0.245c-0.061-0.074-0.088-0.159-0.074-0.244 7e-3 -0.045 0.027-0.087 0.055-0.125-0.058 0.022-0.095 0.04-0.096 0.041zm3.291 0.403-2.369-0.339c0.022 0.05 0.029 0.104 0.021 0.157-0.013 0.079-0.06 0.148-0.131 0.197l2.648 0.337c-0.012-0.202-0.134-0.322-0.169-0.352m-0.122 0.719-2.482-0.307-1.733 6.348h2e-3l-0.689 2.667 6e-3 0.011 1.867 0.083 0.057-0.181h-5e-3zm-0.576 8.613 0.427 0.011-0.096-0.395zm0.413-0.478 0.118 0.493 1.036 0.029-0.282-1.18-1.042-0.054 0.171 0.711zm1.145-0.541 0.06 0.25c0.071-0.036 0.222-0.106 0.404-0.149 0.169-0.041 0.366-0.059 0.551-7e-3l-0.043-0.182c-0.179-0.179-0.728-0.01-0.972 0.088m1.145 0.191-0.088 0.074 0.17 0.711c0.036 9e-3 0.082 0.015 0.103 4e-3 2e-3 -1e-3 3e-3 -1e-3 4e-3 -2e-3zm0.019-0.362 0.277 1.154 0.336-0.153-0.055-0.226 0.018-4e-3c-0.034-0.025-0.057-0.055-0.068-0.09l-7e-3 1e-3 -0.228-0.949zm-0.223-2.182 0.074 0.308c0.091-0.078 0.272-0.207 0.516-0.266 0.122-0.029 0.258-0.041 0.409-0.021l-3e-3 0.02c8e-3 -1e-3 0.016-3e-3 0.024-4e-3 0.032-1e-3 0.063 3e-3 0.094 0.012l-0.079-0.247c-0.538-0.328-0.95 0.1-1.035 0.198m1.794-0.22c-0.174-2e-3 -0.328 0.151-0.329 0.153l-0.162 0.13 0.762 0.054-0.057-0.239c-0.064-0.064-0.136-0.097-0.214-0.098m1.955 0.817c-0.111-0.329-0.361-0.302-0.371-0.301l-1.288-0.076-1e-3 -4e-3 -0.8-0.057c0.039 0.04 0.076 0.088 0.109 0.146 0.098 0.17 0.159 0.398 0.172 0.643 0.02 0.384-0.084 0.722-0.255 0.875l0.393 0.015-2e-3 -7e-3 0.348 0.02 1.009 0.037c0.247 8e-3 0.434-0.063 0.557-0.213 0.242-0.294 0.186-0.814 0.154-1.008l-2e-3 1e-3zm4.198-0.142c0.073 0.034 0.134 0.076 0.185 0.122l0.333-0.324-0.059-0.244-0.091 0.069zm1e-3 -1.502 0.123 0.554 1.025 0.018-0.116-0.483zm1.214 0.676-1.067-0.018 0.201 0.351 0.104-0.079 1.087 0.086zm0.71 0.475-1.417-0.113 0.053 0.221 2e-3 -2e-3 1.411 0.094zm-0.747 1.052 0.02 0.036v-8e-3l0.776-0.05-0.013-6e-3 -0.166-0.542zm1.307 0.987-0.112-0.222-0.884 0.063 0.383 0.478 0.846-0.087zm1.375 0.059 0.508-0.604-0.669 0.052zm-0.583-1.159 1.124-0.063-0.028-0.057-0.132-0.488-1.155 0.054 0.192 0.58zm-0.716-1.907 0.152 0.636 1.069 0.025-0.133-0.552zm1.248 0.774-2e-3 -8e-3 -1.068-0.026 0.059 0.248 0.239 0.263 1.176-0.054-2e-3 -6e-3zm0.625 1.135 2e-3 0.036-1.133 0.064 0.018 0.055 0.331 0.349 0.809-0.062 0.12-0.143zm0.275 0.305 1e-3 1e-3 -0.023 0.027-0.054 0.07-2e-3 -3e-3 -0.872 1.038-8e-3 -7e-3 -0.674 0.849-5e-3 -6e-3 -0.061 0.06 1.215 0.043 4.981-6.169-1.136-0.228 1e-3 -6e-3c-0.011-2e-3 -0.022-4e-3 -0.03-7e-3zm3.396-4.802c-0.065 0.062-0.054 0.151-0.053 0.157l0.019 0.208c0.052 0.014 0.161 0.032 0.224-0.027 0.067-0.061 0.074-0.199 0.024-0.4-0.096-1e-3 -0.169 0.02-0.214 0.062m1.262 0.152-0.014 5e-3 -0.875-0.203c-0.018-3e-3 -0.034-5e-3 -0.05-8e-3 0.028 0.127 0.034 0.232 0.017 0.314l0.928 0.196c-0.052-0.054-0.075-0.118-0.065-0.181 8e-3 -0.052 0.039-0.097 0.085-0.131-0.014 4e-3 -0.024 7e-3 -0.026 8e-3m1.591 0.361-1.02-0.209c5e-3 0.023 6e-3 0.047 2e-3 0.07-0.011 0.072-0.065 0.131-0.143 0.165l1.161 0.236c0.037-0.063 0.064-0.148 0.064-0.258-0.039-4e-3 -0.064-4e-3 -0.064-4e-3m0.421 0.077-7e-3 -2e-3c-0.086-0.03-0.175-0.047-0.247-0.059-2e-3 0.109-0.026 0.198-0.061 0.268l1.242 0.263c-9e-3 -7e-3 -0.019-0.014-0.027-0.022-0.055-0.054-0.079-0.12-0.069-0.185 5e-3 -0.033 0.02-0.064 0.041-0.09zm2.468 0.502-1.009-0.218c7e-3 0.026 8e-3 0.052 4e-3 0.078-0.013 0.086-0.087 0.155-0.193 0.181l1.171 0.249c0.044-0.05 0.049-0.092 0.049-0.095l1e-3 -9e-3 3e-3 -8e-3c0.036-0.083-6e-3 -0.153-0.026-0.178"/>
  </g>
 </g>
</svg>